<mxfile host="Electron" agent="Mozilla/5.0 (Macintosh; Intel Mac OS X 10_15_7) AppleWebKit/537.36 (KHTML, like Gecko) draw.io/26.0.9 Chrome/128.0.6613.186 Electron/32.2.5 Safari/537.36" version="26.0.9">
  <diagram name="Page-1" id="Si4uV3kg3pBdfJscZUHk">
    <mxGraphModel dx="1177" dy="1210" grid="1" gridSize="10" guides="1" tooltips="1" connect="1" arrows="1" fold="1" page="1" pageScale="1" pageWidth="827" pageHeight="1169" math="0" shadow="0">
      <root>
        <mxCell id="0" />
        <mxCell id="1" parent="0" />
        <mxCell id="s-vRyLt8dgjK-mXbJOGv-6" value="" style="whiteSpace=wrap;html=1;aspect=fixed;" vertex="1" parent="1">
          <mxGeometry x="87" y="330" width="640" height="640" as="geometry" />
        </mxCell>
        <mxCell id="s-vRyLt8dgjK-mXbJOGv-98" value="" style="whiteSpace=wrap;html=1;aspect=fixed;" vertex="1" parent="1">
          <mxGeometry x="217" y="890" width="80" height="80" as="geometry" />
        </mxCell>
        <mxCell id="s-vRyLt8dgjK-mXbJOGv-99" value="&lt;font face=&quot;Times New Roman&quot;&gt;&lt;span style=&quot;font-size: 29px;&quot;&gt;Mon&lt;/span&gt;&lt;/font&gt;" style="text;strokeColor=none;align=center;fillColor=none;html=1;verticalAlign=middle;whiteSpace=wrap;rounded=0;" vertex="1" parent="1">
          <mxGeometry x="227" y="906" width="60" height="30" as="geometry" />
        </mxCell>
        <mxCell id="s-vRyLt8dgjK-mXbJOGv-92" value="" style="whiteSpace=wrap;html=1;aspect=fixed;" vertex="1" parent="1">
          <mxGeometry x="207" y="330" width="80" height="80" as="geometry" />
        </mxCell>
        <mxCell id="s-vRyLt8dgjK-mXbJOGv-79" value="" style="group" vertex="1" connectable="0" parent="1">
          <mxGeometry x="87" y="330" width="30" height="640" as="geometry" />
        </mxCell>
        <mxCell id="s-vRyLt8dgjK-mXbJOGv-62" value="" style="triangle;whiteSpace=wrap;html=1;" vertex="1" parent="s-vRyLt8dgjK-mXbJOGv-79">
          <mxGeometry width="30" height="40" as="geometry" />
        </mxCell>
        <mxCell id="s-vRyLt8dgjK-mXbJOGv-63" value="" style="triangle;whiteSpace=wrap;html=1;" vertex="1" parent="s-vRyLt8dgjK-mXbJOGv-79">
          <mxGeometry y="40" width="30" height="40" as="geometry" />
        </mxCell>
        <mxCell id="s-vRyLt8dgjK-mXbJOGv-64" value="" style="triangle;whiteSpace=wrap;html=1;" vertex="1" parent="s-vRyLt8dgjK-mXbJOGv-79">
          <mxGeometry y="80" width="30" height="40" as="geometry" />
        </mxCell>
        <mxCell id="s-vRyLt8dgjK-mXbJOGv-65" value="" style="triangle;whiteSpace=wrap;html=1;" vertex="1" parent="s-vRyLt8dgjK-mXbJOGv-79">
          <mxGeometry y="120" width="30" height="40" as="geometry" />
        </mxCell>
        <mxCell id="s-vRyLt8dgjK-mXbJOGv-66" value="" style="triangle;whiteSpace=wrap;html=1;" vertex="1" parent="s-vRyLt8dgjK-mXbJOGv-79">
          <mxGeometry y="160" width="30" height="40" as="geometry" />
        </mxCell>
        <mxCell id="s-vRyLt8dgjK-mXbJOGv-67" value="" style="triangle;whiteSpace=wrap;html=1;" vertex="1" parent="s-vRyLt8dgjK-mXbJOGv-79">
          <mxGeometry y="200" width="30" height="40" as="geometry" />
        </mxCell>
        <mxCell id="s-vRyLt8dgjK-mXbJOGv-68" value="" style="triangle;whiteSpace=wrap;html=1;" vertex="1" parent="s-vRyLt8dgjK-mXbJOGv-79">
          <mxGeometry y="240" width="30" height="40" as="geometry" />
        </mxCell>
        <mxCell id="s-vRyLt8dgjK-mXbJOGv-69" value="" style="triangle;whiteSpace=wrap;html=1;" vertex="1" parent="s-vRyLt8dgjK-mXbJOGv-79">
          <mxGeometry y="280" width="30" height="40" as="geometry" />
        </mxCell>
        <mxCell id="s-vRyLt8dgjK-mXbJOGv-70" value="" style="triangle;whiteSpace=wrap;html=1;" vertex="1" parent="s-vRyLt8dgjK-mXbJOGv-79">
          <mxGeometry y="320" width="30" height="40" as="geometry" />
        </mxCell>
        <mxCell id="s-vRyLt8dgjK-mXbJOGv-71" value="" style="triangle;whiteSpace=wrap;html=1;" vertex="1" parent="s-vRyLt8dgjK-mXbJOGv-79">
          <mxGeometry y="360" width="30" height="40" as="geometry" />
        </mxCell>
        <mxCell id="s-vRyLt8dgjK-mXbJOGv-72" value="" style="triangle;whiteSpace=wrap;html=1;" vertex="1" parent="s-vRyLt8dgjK-mXbJOGv-79">
          <mxGeometry y="400" width="30" height="40" as="geometry" />
        </mxCell>
        <mxCell id="s-vRyLt8dgjK-mXbJOGv-73" value="" style="triangle;whiteSpace=wrap;html=1;" vertex="1" parent="s-vRyLt8dgjK-mXbJOGv-79">
          <mxGeometry y="440" width="30" height="40" as="geometry" />
        </mxCell>
        <mxCell id="s-vRyLt8dgjK-mXbJOGv-74" value="" style="triangle;whiteSpace=wrap;html=1;" vertex="1" parent="s-vRyLt8dgjK-mXbJOGv-79">
          <mxGeometry y="480" width="30" height="40" as="geometry" />
        </mxCell>
        <mxCell id="s-vRyLt8dgjK-mXbJOGv-75" value="" style="triangle;whiteSpace=wrap;html=1;" vertex="1" parent="s-vRyLt8dgjK-mXbJOGv-79">
          <mxGeometry y="520" width="30" height="40" as="geometry" />
        </mxCell>
        <mxCell id="s-vRyLt8dgjK-mXbJOGv-76" value="" style="triangle;whiteSpace=wrap;html=1;" vertex="1" parent="s-vRyLt8dgjK-mXbJOGv-79">
          <mxGeometry y="560" width="30" height="40" as="geometry" />
        </mxCell>
        <mxCell id="s-vRyLt8dgjK-mXbJOGv-77" value="" style="triangle;whiteSpace=wrap;html=1;" vertex="1" parent="s-vRyLt8dgjK-mXbJOGv-79">
          <mxGeometry y="600" width="30" height="40" as="geometry" />
        </mxCell>
        <mxCell id="s-vRyLt8dgjK-mXbJOGv-90" value="" style="rhombus;whiteSpace=wrap;html=1;" vertex="1" parent="s-vRyLt8dgjK-mXbJOGv-79">
          <mxGeometry x="120" y="-20" width="40" height="40" as="geometry" />
        </mxCell>
        <mxCell id="s-vRyLt8dgjK-mXbJOGv-78" value="&lt;font face=&quot;Courier New&quot; style=&quot;font-size: 29px; line-height: 138%;&quot;&gt;1&lt;/font&gt;&lt;div style=&quot;line-height: 138%;&quot;&gt;&lt;font face=&quot;Courier New&quot; style=&quot;font-size: 29px; line-height: 138%;&quot;&gt;2&lt;/font&gt;&lt;/div&gt;&lt;div style=&quot;line-height: 138%;&quot;&gt;&lt;font face=&quot;Courier New&quot; style=&quot;font-size: 29px; line-height: 138%;&quot;&gt;3&lt;/font&gt;&lt;/div&gt;&lt;div style=&quot;line-height: 138%;&quot;&gt;&lt;font face=&quot;Courier New&quot; style=&quot;font-size: 29px; line-height: 138%;&quot;&gt;4&lt;/font&gt;&lt;/div&gt;&lt;div style=&quot;line-height: 138%;&quot;&gt;&lt;font face=&quot;Courier New&quot; style=&quot;font-size: 29px; line-height: 138%;&quot;&gt;5&lt;/font&gt;&lt;/div&gt;&lt;div style=&quot;line-height: 138%;&quot;&gt;&lt;font face=&quot;Courier New&quot; style=&quot;font-size: 29px; line-height: 138%;&quot;&gt;6&lt;/font&gt;&lt;/div&gt;&lt;div style=&quot;line-height: 138%;&quot;&gt;&lt;font face=&quot;Courier New&quot; style=&quot;font-size: 29px; line-height: 138%;&quot;&gt;7&lt;/font&gt;&lt;/div&gt;&lt;div style=&quot;line-height: 138%;&quot;&gt;&lt;font face=&quot;Courier New&quot; style=&quot;font-size: 29px; line-height: 138%;&quot;&gt;8&lt;/font&gt;&lt;/div&gt;&lt;div style=&quot;line-height: 138%;&quot;&gt;&lt;font face=&quot;Courier New&quot; style=&quot;font-size: 29px; line-height: 138%;&quot;&gt;9&lt;/font&gt;&lt;/div&gt;&lt;div style=&quot;line-height: 138%;&quot;&gt;&lt;font face=&quot;Courier New&quot; style=&quot;font-size: 29px; line-height: 138%;&quot;&gt;10&lt;/font&gt;&lt;/div&gt;&lt;div style=&quot;line-height: 138%;&quot;&gt;&lt;font face=&quot;Courier New&quot; style=&quot;font-size: 29px; line-height: 138%;&quot;&gt;11&lt;/font&gt;&lt;/div&gt;&lt;div style=&quot;line-height: 138%;&quot;&gt;&lt;font face=&quot;Courier New&quot; style=&quot;font-size: 29px; line-height: 138%;&quot;&gt;12&lt;/font&gt;&lt;/div&gt;&lt;div style=&quot;line-height: 138%;&quot;&gt;&lt;font face=&quot;Courier New&quot; style=&quot;font-size: 29px; line-height: 138%;&quot;&gt;13&lt;/font&gt;&lt;/div&gt;&lt;div style=&quot;line-height: 138%;&quot;&gt;&lt;font face=&quot;Courier New&quot; style=&quot;font-size: 29px; line-height: 138%;&quot;&gt;14&lt;/font&gt;&lt;/div&gt;&lt;div style=&quot;line-height: 138%;&quot;&gt;&lt;font face=&quot;Courier New&quot; style=&quot;font-size: 29px; line-height: 138%;&quot;&gt;15&lt;/font&gt;&lt;/div&gt;&lt;div style=&quot;line-height: 138%;&quot;&gt;&lt;font face=&quot;Courier New&quot; style=&quot;font-size: 29px; line-height: 138%;&quot;&gt;16&lt;/font&gt;&lt;/div&gt;" style="text;strokeColor=none;align=left;fillColor=none;html=1;verticalAlign=middle;whiteSpace=wrap;rounded=0;" vertex="1" parent="1">
          <mxGeometry x="115" y="532" width="10" height="235" as="geometry" />
        </mxCell>
        <mxCell id="s-vRyLt8dgjK-mXbJOGv-24" value="&lt;font face=&quot;Times New Roman&quot; style=&quot;font-size: 29px; line-height: 138%;&quot;&gt;1&lt;/font&gt;&lt;div style=&quot;line-height: 138%;&quot;&gt;&lt;font face=&quot;Times New Roman&quot; style=&quot;font-size: 29px; line-height: 138%;&quot;&gt;2&lt;/font&gt;&lt;/div&gt;&lt;div style=&quot;line-height: 138%;&quot;&gt;&lt;font face=&quot;Times New Roman&quot; style=&quot;font-size: 29px; line-height: 138%;&quot;&gt;3&lt;/font&gt;&lt;/div&gt;&lt;div style=&quot;line-height: 138%;&quot;&gt;&lt;font face=&quot;Times New Roman&quot; style=&quot;font-size: 29px; line-height: 138%;&quot;&gt;4&lt;/font&gt;&lt;/div&gt;&lt;div style=&quot;line-height: 138%;&quot;&gt;&lt;font face=&quot;Times New Roman&quot; style=&quot;font-size: 29px; line-height: 138%;&quot;&gt;5&lt;/font&gt;&lt;/div&gt;&lt;div style=&quot;line-height: 138%;&quot;&gt;&lt;font face=&quot;Times New Roman&quot; style=&quot;font-size: 29px; line-height: 138%;&quot;&gt;6&lt;/font&gt;&lt;/div&gt;&lt;div style=&quot;line-height: 138%;&quot;&gt;&lt;font face=&quot;Times New Roman&quot; style=&quot;font-size: 29px; line-height: 138%;&quot;&gt;7&lt;/font&gt;&lt;/div&gt;&lt;div style=&quot;line-height: 138%;&quot;&gt;&lt;font face=&quot;Times New Roman&quot; style=&quot;font-size: 29px; line-height: 138%;&quot;&gt;8&lt;/font&gt;&lt;/div&gt;&lt;div style=&quot;line-height: 138%;&quot;&gt;&lt;font face=&quot;Times New Roman&quot; style=&quot;font-size: 29px; line-height: 138%;&quot;&gt;9&lt;/font&gt;&lt;/div&gt;&lt;div style=&quot;line-height: 138%;&quot;&gt;&lt;font face=&quot;Times New Roman&quot; style=&quot;font-size: 29px; line-height: 138%;&quot;&gt;10&lt;/font&gt;&lt;/div&gt;&lt;div style=&quot;line-height: 138%;&quot;&gt;&lt;font face=&quot;Times New Roman&quot; style=&quot;font-size: 29px; line-height: 138%;&quot;&gt;11&lt;/font&gt;&lt;/div&gt;&lt;div style=&quot;line-height: 138%;&quot;&gt;&lt;font face=&quot;Times New Roman&quot; style=&quot;font-size: 29px; line-height: 138%;&quot;&gt;12&lt;/font&gt;&lt;/div&gt;&lt;div style=&quot;line-height: 138%;&quot;&gt;&lt;font face=&quot;Times New Roman&quot; style=&quot;font-size: 29px; line-height: 138%;&quot;&gt;13&lt;/font&gt;&lt;/div&gt;&lt;div style=&quot;line-height: 138%;&quot;&gt;&lt;font face=&quot;Times New Roman&quot; style=&quot;font-size: 29px; line-height: 138%;&quot;&gt;14&lt;/font&gt;&lt;/div&gt;&lt;div style=&quot;line-height: 138%;&quot;&gt;&lt;font face=&quot;Times New Roman&quot; style=&quot;font-size: 29px; line-height: 138%;&quot;&gt;15&lt;/font&gt;&lt;/div&gt;&lt;div style=&quot;line-height: 138%;&quot;&gt;&lt;font face=&quot;Times New Roman&quot; style=&quot;font-size: 29px; line-height: 138%;&quot;&gt;16&lt;/font&gt;&lt;/div&gt;" style="text;strokeColor=none;align=right;fillColor=none;html=1;verticalAlign=middle;whiteSpace=wrap;rounded=0;" vertex="1" parent="1">
          <mxGeometry x="717" y="531" width="10" height="235" as="geometry" />
        </mxCell>
        <mxCell id="s-vRyLt8dgjK-mXbJOGv-81" value="" style="group" vertex="1" connectable="0" parent="1">
          <mxGeometry x="726" y="330" width="30" height="640" as="geometry" />
        </mxCell>
        <mxCell id="s-vRyLt8dgjK-mXbJOGv-8" value="" style="triangle;whiteSpace=wrap;html=1;" vertex="1" parent="s-vRyLt8dgjK-mXbJOGv-81">
          <mxGeometry width="30" height="40" as="geometry" />
        </mxCell>
        <mxCell id="s-vRyLt8dgjK-mXbJOGv-9" value="" style="triangle;whiteSpace=wrap;html=1;" vertex="1" parent="s-vRyLt8dgjK-mXbJOGv-81">
          <mxGeometry y="40" width="30" height="40" as="geometry" />
        </mxCell>
        <mxCell id="s-vRyLt8dgjK-mXbJOGv-10" value="" style="triangle;whiteSpace=wrap;html=1;" vertex="1" parent="s-vRyLt8dgjK-mXbJOGv-81">
          <mxGeometry y="80" width="30" height="40" as="geometry" />
        </mxCell>
        <mxCell id="s-vRyLt8dgjK-mXbJOGv-11" value="" style="triangle;whiteSpace=wrap;html=1;" vertex="1" parent="s-vRyLt8dgjK-mXbJOGv-81">
          <mxGeometry y="120" width="30" height="40" as="geometry" />
        </mxCell>
        <mxCell id="s-vRyLt8dgjK-mXbJOGv-12" value="" style="triangle;whiteSpace=wrap;html=1;" vertex="1" parent="s-vRyLt8dgjK-mXbJOGv-81">
          <mxGeometry y="160" width="30" height="40" as="geometry" />
        </mxCell>
        <mxCell id="s-vRyLt8dgjK-mXbJOGv-13" value="" style="triangle;whiteSpace=wrap;html=1;" vertex="1" parent="s-vRyLt8dgjK-mXbJOGv-81">
          <mxGeometry y="200" width="30" height="40" as="geometry" />
        </mxCell>
        <mxCell id="s-vRyLt8dgjK-mXbJOGv-14" value="" style="triangle;whiteSpace=wrap;html=1;" vertex="1" parent="s-vRyLt8dgjK-mXbJOGv-81">
          <mxGeometry y="240" width="30" height="40" as="geometry" />
        </mxCell>
        <mxCell id="s-vRyLt8dgjK-mXbJOGv-15" value="" style="triangle;whiteSpace=wrap;html=1;" vertex="1" parent="s-vRyLt8dgjK-mXbJOGv-81">
          <mxGeometry y="280" width="30" height="40" as="geometry" />
        </mxCell>
        <mxCell id="s-vRyLt8dgjK-mXbJOGv-16" value="" style="triangle;whiteSpace=wrap;html=1;" vertex="1" parent="s-vRyLt8dgjK-mXbJOGv-81">
          <mxGeometry y="320" width="30" height="40" as="geometry" />
        </mxCell>
        <mxCell id="s-vRyLt8dgjK-mXbJOGv-17" value="" style="triangle;whiteSpace=wrap;html=1;" vertex="1" parent="s-vRyLt8dgjK-mXbJOGv-81">
          <mxGeometry y="360" width="30" height="40" as="geometry" />
        </mxCell>
        <mxCell id="s-vRyLt8dgjK-mXbJOGv-18" value="" style="triangle;whiteSpace=wrap;html=1;" vertex="1" parent="s-vRyLt8dgjK-mXbJOGv-81">
          <mxGeometry y="400" width="30" height="40" as="geometry" />
        </mxCell>
        <mxCell id="s-vRyLt8dgjK-mXbJOGv-19" value="" style="triangle;whiteSpace=wrap;html=1;" vertex="1" parent="s-vRyLt8dgjK-mXbJOGv-81">
          <mxGeometry y="440" width="30" height="40" as="geometry" />
        </mxCell>
        <mxCell id="s-vRyLt8dgjK-mXbJOGv-20" value="" style="triangle;whiteSpace=wrap;html=1;" vertex="1" parent="s-vRyLt8dgjK-mXbJOGv-81">
          <mxGeometry y="480" width="30" height="40" as="geometry" />
        </mxCell>
        <mxCell id="s-vRyLt8dgjK-mXbJOGv-21" value="" style="triangle;whiteSpace=wrap;html=1;" vertex="1" parent="s-vRyLt8dgjK-mXbJOGv-81">
          <mxGeometry y="520" width="30" height="40" as="geometry" />
        </mxCell>
        <mxCell id="s-vRyLt8dgjK-mXbJOGv-22" value="" style="triangle;whiteSpace=wrap;html=1;" vertex="1" parent="s-vRyLt8dgjK-mXbJOGv-81">
          <mxGeometry y="560" width="30" height="40" as="geometry" />
        </mxCell>
        <mxCell id="s-vRyLt8dgjK-mXbJOGv-23" value="" style="triangle;whiteSpace=wrap;html=1;" vertex="1" parent="s-vRyLt8dgjK-mXbJOGv-81">
          <mxGeometry y="600" width="30" height="40" as="geometry" />
        </mxCell>
        <mxCell id="s-vRyLt8dgjK-mXbJOGv-85" value="&lt;font style=&quot;font-size: 29px;&quot; face=&quot;Times New Roman&quot;&gt;Analog&lt;/font&gt;&lt;div&gt;&lt;font style=&quot;font-size: 29px;&quot; face=&quot;Times New Roman&quot;&gt;Out&lt;/font&gt;&lt;/div&gt;&lt;div&gt;&lt;font style=&quot;font-size: 29px;&quot; face=&quot;Times New Roman&quot;&gt;XLR&lt;/font&gt;&lt;/div&gt;" style="text;strokeColor=none;align=center;fillColor=none;html=1;verticalAlign=middle;whiteSpace=wrap;rounded=0;" vertex="1" parent="1">
          <mxGeometry x="620" y="640" width="60" height="30" as="geometry" />
        </mxCell>
        <mxCell id="s-vRyLt8dgjK-mXbJOGv-89" value="&lt;font style=&quot;font-size: 29px;&quot; face=&quot;Times New Roman&quot;&gt;Analog&lt;/font&gt;&lt;div&gt;&lt;font style=&quot;font-size: 29px;&quot; face=&quot;Times New Roman&quot;&gt;In&lt;/font&gt;&lt;/div&gt;&lt;div&gt;&lt;font style=&quot;font-size: 29px;&quot; face=&quot;Times New Roman&quot;&gt;XLR&lt;/font&gt;&lt;/div&gt;" style="text;strokeColor=none;align=center;fillColor=none;html=1;verticalAlign=middle;whiteSpace=wrap;rounded=0;" vertex="1" parent="1">
          <mxGeometry x="170" y="635" width="60" height="30" as="geometry" />
        </mxCell>
        <mxCell id="s-vRyLt8dgjK-mXbJOGv-91" value="" style="rhombus;whiteSpace=wrap;html=1;" vertex="1" parent="1">
          <mxGeometry x="247" y="311" width="40" height="40" as="geometry" />
        </mxCell>
        <mxCell id="s-vRyLt8dgjK-mXbJOGv-93" value="&lt;span style=&quot;line-height: 100%;&quot;&gt;&lt;font style=&quot;font-size: 22px;&quot; face=&quot;Times New Roman&quot;&gt;Audio&lt;/font&gt;&lt;/span&gt;&lt;div style=&quot;line-height: 100%;&quot;&gt;&lt;span style=&quot;line-height: 100%;&quot;&gt;&lt;font style=&quot;font-size: 22px;&quot; face=&quot;Times New Roman&quot;&gt;Network&lt;/font&gt;&lt;/span&gt;&lt;/div&gt;" style="text;strokeColor=none;align=center;fillColor=none;html=1;verticalAlign=middle;whiteSpace=wrap;rounded=0;" vertex="1" parent="1">
          <mxGeometry x="217" y="360" width="60" height="30" as="geometry" />
        </mxCell>
        <mxCell id="s-vRyLt8dgjK-mXbJOGv-95" value="" style="triangle;whiteSpace=wrap;html=1;direction=south;" vertex="1" parent="1">
          <mxGeometry x="217" y="970" width="40" height="30" as="geometry" />
        </mxCell>
        <mxCell id="s-vRyLt8dgjK-mXbJOGv-97" value="" style="triangle;whiteSpace=wrap;html=1;direction=south;" vertex="1" parent="1">
          <mxGeometry x="256" y="970" width="40" height="30" as="geometry" />
        </mxCell>
        <mxCell id="s-vRyLt8dgjK-mXbJOGv-100" value="" style="whiteSpace=wrap;html=1;aspect=fixed;" vertex="1" parent="1">
          <mxGeometry x="310" y="890" width="80" height="80" as="geometry" />
        </mxCell>
        <mxCell id="s-vRyLt8dgjK-mXbJOGv-101" value="&lt;font face=&quot;Times New Roman&quot;&gt;&lt;span style=&quot;font-size: 29px;&quot;&gt;WC&lt;/span&gt;&lt;/font&gt;" style="text;strokeColor=none;align=center;fillColor=none;html=1;verticalAlign=middle;whiteSpace=wrap;rounded=0;" vertex="1" parent="1">
          <mxGeometry x="320" y="906" width="60" height="30" as="geometry" />
        </mxCell>
        <mxCell id="s-vRyLt8dgjK-mXbJOGv-102" value="" style="triangle;whiteSpace=wrap;html=1;direction=south;flipV=1;" vertex="1" parent="1">
          <mxGeometry x="310" y="940" width="40" height="30" as="geometry" />
        </mxCell>
        <mxCell id="s-vRyLt8dgjK-mXbJOGv-103" value="" style="triangle;whiteSpace=wrap;html=1;direction=south;" vertex="1" parent="1">
          <mxGeometry x="349" y="970" width="40" height="30" as="geometry" />
        </mxCell>
        <mxCell id="s-vRyLt8dgjK-mXbJOGv-108" value="" style="whiteSpace=wrap;html=1;aspect=fixed;" vertex="1" parent="1">
          <mxGeometry x="402" y="890" width="80" height="80" as="geometry" />
        </mxCell>
        <mxCell id="s-vRyLt8dgjK-mXbJOGv-109" value="&lt;font face=&quot;Times New Roman&quot;&gt;&lt;span style=&quot;font-size: 29px;&quot;&gt;MIDI&lt;/span&gt;&lt;/font&gt;" style="text;strokeColor=none;align=center;fillColor=none;html=1;verticalAlign=middle;whiteSpace=wrap;rounded=0;" vertex="1" parent="1">
          <mxGeometry x="412" y="906" width="60" height="30" as="geometry" />
        </mxCell>
        <mxCell id="s-vRyLt8dgjK-mXbJOGv-110" value="" style="triangle;whiteSpace=wrap;html=1;direction=south;flipV=1;" vertex="1" parent="1">
          <mxGeometry x="402" y="940" width="40" height="30" as="geometry" />
        </mxCell>
        <mxCell id="s-vRyLt8dgjK-mXbJOGv-111" value="" style="triangle;whiteSpace=wrap;html=1;direction=south;" vertex="1" parent="1">
          <mxGeometry x="441" y="970" width="40" height="30" as="geometry" />
        </mxCell>
        <mxCell id="s-vRyLt8dgjK-mXbJOGv-112" value="" style="whiteSpace=wrap;html=1;aspect=fixed;" vertex="1" parent="1">
          <mxGeometry x="494" y="889" width="80" height="80" as="geometry" />
        </mxCell>
        <mxCell id="s-vRyLt8dgjK-mXbJOGv-113" value="&lt;font face=&quot;Times New Roman&quot;&gt;&lt;span style=&quot;font-size: 29px;&quot;&gt;AES&lt;/span&gt;&lt;/font&gt;" style="text;strokeColor=none;align=center;fillColor=none;html=1;verticalAlign=middle;whiteSpace=wrap;rounded=0;" vertex="1" parent="1">
          <mxGeometry x="504" y="905" width="60" height="30" as="geometry" />
        </mxCell>
        <mxCell id="s-vRyLt8dgjK-mXbJOGv-114" value="" style="triangle;whiteSpace=wrap;html=1;direction=south;" vertex="1" parent="1">
          <mxGeometry x="494" y="969" width="40" height="30" as="geometry" />
        </mxCell>
        <mxCell id="s-vRyLt8dgjK-mXbJOGv-115" value="" style="triangle;whiteSpace=wrap;html=1;direction=south;" vertex="1" parent="1">
          <mxGeometry x="533" y="969" width="40" height="30" as="geometry" />
        </mxCell>
        <mxCell id="s-vRyLt8dgjK-mXbJOGv-116" value="" style="whiteSpace=wrap;html=1;aspect=fixed;" vertex="1" parent="1">
          <mxGeometry x="317" y="330" width="80" height="80" as="geometry" />
        </mxCell>
        <mxCell id="s-vRyLt8dgjK-mXbJOGv-117" value="" style="rhombus;whiteSpace=wrap;html=1;" vertex="1" parent="1">
          <mxGeometry x="317" y="310" width="40" height="40" as="geometry" />
        </mxCell>
        <mxCell id="s-vRyLt8dgjK-mXbJOGv-118" value="" style="rhombus;whiteSpace=wrap;html=1;" vertex="1" parent="1">
          <mxGeometry x="357" y="311" width="40" height="40" as="geometry" />
        </mxCell>
        <mxCell id="s-vRyLt8dgjK-mXbJOGv-120" value="&lt;span style=&quot;line-height: 100%;&quot;&gt;&lt;font style=&quot;font-size: 22px;&quot; face=&quot;Times New Roman&quot;&gt;Ctrl&lt;/font&gt;&lt;/span&gt;&lt;div style=&quot;line-height: 100%;&quot;&gt;&lt;span style=&quot;line-height: 100%;&quot;&gt;&lt;font style=&quot;font-size: 22px;&quot; face=&quot;Times New Roman&quot;&gt;Network&lt;/font&gt;&lt;/span&gt;&lt;/div&gt;" style="text;strokeColor=none;align=center;fillColor=none;html=1;verticalAlign=middle;whiteSpace=wrap;rounded=0;" vertex="1" parent="1">
          <mxGeometry x="327" y="363" width="60" height="30" as="geometry" />
        </mxCell>
        <mxCell id="s-vRyLt8dgjK-mXbJOGv-121" value="" style="whiteSpace=wrap;html=1;aspect=fixed;" vertex="1" parent="1">
          <mxGeometry x="424" y="330" width="80" height="80" as="geometry" />
        </mxCell>
        <mxCell id="s-vRyLt8dgjK-mXbJOGv-124" value="&lt;font style=&quot;line-height: 80%;&quot; face=&quot;Times New Roman&quot;&gt;&lt;span style=&quot;font-size: 22px; line-height: 80%;&quot;&gt;Remote&lt;/span&gt;&lt;/font&gt;&lt;div style=&quot;line-height: 80%;&quot;&gt;&lt;font face=&quot;Times New Roman&quot;&gt;&lt;span style=&quot;font-size: 22px; line-height: 80%;&quot;&gt;or&lt;/span&gt;&lt;/font&gt;&lt;/div&gt;&lt;div style=&quot;line-height: 80%;&quot;&gt;&lt;font face=&quot;Times New Roman&quot;&gt;&lt;span style=&quot;font-size: 22px; line-height: 80%;&quot;&gt;Cascade&lt;/span&gt;&lt;/font&gt;&lt;/div&gt;" style="text;strokeColor=none;align=center;fillColor=none;html=1;verticalAlign=middle;whiteSpace=wrap;rounded=0;" vertex="1" parent="1">
          <mxGeometry x="434" y="363" width="60" height="30" as="geometry" />
        </mxCell>
        <mxCell id="s-vRyLt8dgjK-mXbJOGv-125" value="" style="triangle;whiteSpace=wrap;html=1;direction=south;flipV=1;" vertex="1" parent="1">
          <mxGeometry x="425" y="300" width="40" height="30" as="geometry" />
        </mxCell>
        <mxCell id="s-vRyLt8dgjK-mXbJOGv-126" value="" style="triangle;whiteSpace=wrap;html=1;direction=south;" vertex="1" parent="1">
          <mxGeometry x="464" y="330" width="40" height="30" as="geometry" />
        </mxCell>
        <mxCell id="s-vRyLt8dgjK-mXbJOGv-129" value="" style="group;flipV=0;direction=west;rotation=-180;" vertex="1" connectable="0" parent="1">
          <mxGeometry x="424" y="330" width="79" height="60" as="geometry" />
        </mxCell>
        <mxCell id="s-vRyLt8dgjK-mXbJOGv-128" value="" style="triangle;whiteSpace=wrap;html=1;direction=south;rotation=0;" vertex="1" parent="s-vRyLt8dgjK-mXbJOGv-129">
          <mxGeometry width="40" height="30" as="geometry" />
        </mxCell>
        <mxCell id="s-vRyLt8dgjK-mXbJOGv-127" value="" style="triangle;whiteSpace=wrap;html=1;direction=south;flipV=1;rotation=0;" vertex="1" parent="1">
          <mxGeometry x="463" y="300" width="40" height="30" as="geometry" />
        </mxCell>
      </root>
    </mxGraphModel>
  </diagram>
</mxfile>
